<mxfile host="Electron" modified="2024-04-24T05:25:29.112Z" agent="Mozilla/5.0 (Windows NT 10.0; Win64; x64) AppleWebKit/537.36 (KHTML, like Gecko) draw.io/24.2.5 Chrome/120.0.6099.109 Electron/28.1.0 Safari/537.36" etag="f3CrqfUSISBvWdasdcAH" version="24.2.5" type="device">
  <diagram name="第 1 页" id="0c9wx553b7LbTRIZgzwm">
    <mxGraphModel dx="1104" dy="810" grid="1" gridSize="10" guides="1" tooltips="1" connect="1" arrows="1" fold="1" page="1" pageScale="1" pageWidth="827" pageHeight="1169" math="0" shadow="0">
      <root>
        <mxCell id="0" />
        <mxCell id="1" parent="0" />
        <mxCell id="d6C8ocy7qPmGwYubDqnd-1" value="a1" style="rounded=0;whiteSpace=wrap;html=1;" vertex="1" parent="1">
          <mxGeometry x="130" y="120" width="60" height="60" as="geometry" />
        </mxCell>
        <mxCell id="d6C8ocy7qPmGwYubDqnd-7" value="b1" style="rounded=0;whiteSpace=wrap;html=1;" vertex="1" parent="1">
          <mxGeometry x="130" y="340" width="60" height="60" as="geometry" />
        </mxCell>
        <mxCell id="d6C8ocy7qPmGwYubDqnd-8" value="&lt;font style=&quot;font-size: 48px;&quot;&gt;A:&lt;/font&gt;" style="text;html=1;align=center;verticalAlign=middle;resizable=0;points=[];autosize=1;strokeColor=none;fillColor=none;" vertex="1" parent="1">
          <mxGeometry x="45" y="118" width="70" height="70" as="geometry" />
        </mxCell>
        <mxCell id="d6C8ocy7qPmGwYubDqnd-9" value="&lt;font style=&quot;font-size: 48px;&quot;&gt;B:&lt;/font&gt;" style="text;html=1;align=center;verticalAlign=middle;resizable=0;points=[];autosize=1;strokeColor=none;fillColor=none;" vertex="1" parent="1">
          <mxGeometry x="45" y="335" width="70" height="70" as="geometry" />
        </mxCell>
        <mxCell id="d6C8ocy7qPmGwYubDqnd-11" value="b3" style="rounded=0;whiteSpace=wrap;html=1;" vertex="1" parent="1">
          <mxGeometry x="290" y="340" width="60" height="60" as="geometry" />
        </mxCell>
        <mxCell id="d6C8ocy7qPmGwYubDqnd-37" style="edgeStyle=orthogonalEdgeStyle;rounded=0;orthogonalLoop=1;jettySize=auto;html=1;" edge="1" parent="1" source="d6C8ocy7qPmGwYubDqnd-12">
          <mxGeometry relative="1" as="geometry">
            <mxPoint x="540" y="230" as="targetPoint" />
          </mxGeometry>
        </mxCell>
        <mxCell id="d6C8ocy7qPmGwYubDqnd-12" value="c3" style="rounded=0;whiteSpace=wrap;html=1;" vertex="1" parent="1">
          <mxGeometry x="460" y="118" width="60" height="60" as="geometry" />
        </mxCell>
        <mxCell id="d6C8ocy7qPmGwYubDqnd-13" value="c2" style="rounded=0;whiteSpace=wrap;html=1;" vertex="1" parent="1">
          <mxGeometry x="370" y="118" width="60" height="60" as="geometry" />
        </mxCell>
        <mxCell id="d6C8ocy7qPmGwYubDqnd-14" value="c1" style="rounded=0;whiteSpace=wrap;html=1;" vertex="1" parent="1">
          <mxGeometry x="290" y="118" width="60" height="60" as="geometry" />
        </mxCell>
        <mxCell id="d6C8ocy7qPmGwYubDqnd-15" value="a2" style="rounded=0;whiteSpace=wrap;html=1;" vertex="1" parent="1">
          <mxGeometry x="210" y="118" width="60" height="60" as="geometry" />
        </mxCell>
        <mxCell id="d6C8ocy7qPmGwYubDqnd-17" value="b2" style="rounded=0;whiteSpace=wrap;html=1;" vertex="1" parent="1">
          <mxGeometry x="210" y="340" width="60" height="60" as="geometry" />
        </mxCell>
        <mxCell id="d6C8ocy7qPmGwYubDqnd-18" value="c1" style="rounded=0;whiteSpace=wrap;html=1;" vertex="1" parent="1">
          <mxGeometry x="370" y="340" width="60" height="60" as="geometry" />
        </mxCell>
        <mxCell id="d6C8ocy7qPmGwYubDqnd-19" value="c2" style="rounded=0;whiteSpace=wrap;html=1;" vertex="1" parent="1">
          <mxGeometry x="460" y="340" width="60" height="60" as="geometry" />
        </mxCell>
        <mxCell id="d6C8ocy7qPmGwYubDqnd-32" style="edgeStyle=orthogonalEdgeStyle;rounded=0;orthogonalLoop=1;jettySize=auto;html=1;" edge="1" parent="1" source="d6C8ocy7qPmGwYubDqnd-20">
          <mxGeometry relative="1" as="geometry">
            <mxPoint x="630" y="450" as="targetPoint" />
          </mxGeometry>
        </mxCell>
        <mxCell id="d6C8ocy7qPmGwYubDqnd-20" value="c3" style="rounded=0;whiteSpace=wrap;html=1;" vertex="1" parent="1">
          <mxGeometry x="550" y="340" width="60" height="60" as="geometry" />
        </mxCell>
        <mxCell id="d6C8ocy7qPmGwYubDqnd-21" value="a1" style="rounded=0;whiteSpace=wrap;html=1;" vertex="1" parent="1">
          <mxGeometry x="640" y="340" width="60" height="60" as="geometry" />
        </mxCell>
        <mxCell id="d6C8ocy7qPmGwYubDqnd-22" value="a2" style="rounded=0;whiteSpace=wrap;html=1;" vertex="1" parent="1">
          <mxGeometry x="130" y="440" width="60" height="60" as="geometry" />
        </mxCell>
        <mxCell id="d6C8ocy7qPmGwYubDqnd-23" value="c1" style="rounded=0;whiteSpace=wrap;html=1;fillColor=#d80073;fontColor=#ffffff;strokeColor=#A50040;" vertex="1" parent="1">
          <mxGeometry x="210" y="440" width="60" height="60" as="geometry" />
        </mxCell>
        <mxCell id="d6C8ocy7qPmGwYubDqnd-24" value="c2" style="rounded=0;whiteSpace=wrap;html=1;" vertex="1" parent="1">
          <mxGeometry x="290" y="440" width="60" height="60" as="geometry" />
        </mxCell>
        <mxCell id="d6C8ocy7qPmGwYubDqnd-25" value="c3" style="rounded=0;whiteSpace=wrap;html=1;" vertex="1" parent="1">
          <mxGeometry x="370" y="440" width="60" height="60" as="geometry" />
        </mxCell>
        <mxCell id="d6C8ocy7qPmGwYubDqnd-26" value="b1" style="rounded=0;whiteSpace=wrap;html=1;" vertex="1" parent="1">
          <mxGeometry x="550" y="118" width="60" height="60" as="geometry" />
        </mxCell>
        <mxCell id="d6C8ocy7qPmGwYubDqnd-27" value="b2" style="rounded=0;whiteSpace=wrap;html=1;" vertex="1" parent="1">
          <mxGeometry x="640" y="118" width="60" height="60" as="geometry" />
        </mxCell>
        <mxCell id="d6C8ocy7qPmGwYubDqnd-28" value="b3" style="rounded=0;whiteSpace=wrap;html=1;" vertex="1" parent="1">
          <mxGeometry x="130" y="210" width="60" height="60" as="geometry" />
        </mxCell>
        <mxCell id="d6C8ocy7qPmGwYubDqnd-29" value="c1" style="rounded=0;whiteSpace=wrap;html=1;fillColor=#d80073;fontColor=#ffffff;strokeColor=#A50040;" vertex="1" parent="1">
          <mxGeometry x="210" y="210" width="60" height="60" as="geometry" />
        </mxCell>
        <mxCell id="d6C8ocy7qPmGwYubDqnd-30" value="c2" style="rounded=0;whiteSpace=wrap;html=1;" vertex="1" parent="1">
          <mxGeometry x="290" y="210" width="60" height="60" as="geometry" />
        </mxCell>
        <mxCell id="d6C8ocy7qPmGwYubDqnd-31" value="c3" style="rounded=0;whiteSpace=wrap;html=1;" vertex="1" parent="1">
          <mxGeometry x="370" y="210" width="60" height="60" as="geometry" />
        </mxCell>
        <mxCell id="d6C8ocy7qPmGwYubDqnd-33" value="&lt;font style=&quot;font-size: 18px;&quot;&gt;NULL&lt;/font&gt;" style="text;html=1;align=center;verticalAlign=middle;resizable=0;points=[];autosize=1;strokeColor=none;fillColor=none;" vertex="1" parent="1">
          <mxGeometry x="600" y="450" width="70" height="40" as="geometry" />
        </mxCell>
        <mxCell id="d6C8ocy7qPmGwYubDqnd-35" value="" style="edgeStyle=segmentEdgeStyle;endArrow=classic;html=1;curved=0;rounded=0;endSize=8;startSize=8;entryX=0.5;entryY=0;entryDx=0;entryDy=0;" edge="1" parent="1" target="d6C8ocy7qPmGwYubDqnd-21">
          <mxGeometry width="50" height="50" relative="1" as="geometry">
            <mxPoint x="730" y="280" as="sourcePoint" />
            <mxPoint x="720" y="230" as="targetPoint" />
          </mxGeometry>
        </mxCell>
        <mxCell id="d6C8ocy7qPmGwYubDqnd-36" value="&lt;font style=&quot;font-size: 18px;&quot;&gt;headA&lt;/font&gt;" style="text;html=1;align=center;verticalAlign=middle;resizable=0;points=[];autosize=1;strokeColor=none;fillColor=none;" vertex="1" parent="1">
          <mxGeometry x="720" y="260" width="80" height="40" as="geometry" />
        </mxCell>
        <mxCell id="d6C8ocy7qPmGwYubDqnd-38" value="&lt;span style=&quot;color: rgb(240, 240, 240); font-family: Helvetica; font-size: 18px; font-style: normal; font-variant-ligatures: normal; font-variant-caps: normal; font-weight: 400; letter-spacing: normal; orphans: 2; text-align: center; text-indent: 0px; text-transform: none; widows: 2; word-spacing: 0px; -webkit-text-stroke-width: 0px; white-space: nowrap; background-color: rgb(27, 29, 30); text-decoration-thickness: initial; text-decoration-style: initial; text-decoration-color: initial; display: inline !important; float: none;&quot;&gt;NULL&lt;/span&gt;" style="text;whiteSpace=wrap;html=1;" vertex="1" parent="1">
          <mxGeometry x="520" y="230" width="80" height="50" as="geometry" />
        </mxCell>
        <mxCell id="d6C8ocy7qPmGwYubDqnd-39" value="&lt;span style=&quot;color: rgb(240, 240, 240); font-family: Helvetica; font-size: 18px; font-style: normal; font-variant-ligatures: normal; font-variant-caps: normal; font-weight: 400; letter-spacing: normal; orphans: 2; text-align: center; text-indent: 0px; text-transform: none; widows: 2; word-spacing: 0px; -webkit-text-stroke-width: 0px; white-space: nowrap; background-color: rgb(27, 29, 30); text-decoration-thickness: initial; text-decoration-style: initial; text-decoration-color: initial; display: inline !important; float: none;&quot;&gt;headB&lt;/span&gt;" style="text;whiteSpace=wrap;html=1;" vertex="1" parent="1">
          <mxGeometry x="640" y="40" width="90" height="50" as="geometry" />
        </mxCell>
        <mxCell id="d6C8ocy7qPmGwYubDqnd-41" value="" style="edgeStyle=segmentEdgeStyle;endArrow=classic;html=1;curved=0;rounded=0;endSize=8;startSize=8;entryX=0.5;entryY=0;entryDx=0;entryDy=0;" edge="1" parent="1">
          <mxGeometry width="50" height="50" relative="1" as="geometry">
            <mxPoint x="640" y="58" as="sourcePoint" />
            <mxPoint x="580" y="118" as="targetPoint" />
          </mxGeometry>
        </mxCell>
        <mxCell id="d6C8ocy7qPmGwYubDqnd-45" value="&lt;font style=&quot;font-size: 18px;&quot;&gt;1&lt;/font&gt;" style="whiteSpace=wrap;html=1;aspect=fixed;" vertex="1" parent="1">
          <mxGeometry x="130" y="630" width="60" height="60" as="geometry" />
        </mxCell>
        <mxCell id="d6C8ocy7qPmGwYubDqnd-46" value="&lt;font style=&quot;font-size: 18px;&quot;&gt;2&lt;/font&gt;" style="whiteSpace=wrap;html=1;aspect=fixed;" vertex="1" parent="1">
          <mxGeometry x="250" y="630" width="60" height="60" as="geometry" />
        </mxCell>
        <mxCell id="d6C8ocy7qPmGwYubDqnd-47" value="&lt;font style=&quot;font-size: 18px;&quot;&gt;3&lt;/font&gt;" style="whiteSpace=wrap;html=1;aspect=fixed;" vertex="1" parent="1">
          <mxGeometry x="370" y="630" width="60" height="60" as="geometry" />
        </mxCell>
        <mxCell id="d6C8ocy7qPmGwYubDqnd-48" value="&lt;font style=&quot;font-size: 18px;&quot;&gt;2&lt;/font&gt;" style="whiteSpace=wrap;html=1;aspect=fixed;" vertex="1" parent="1">
          <mxGeometry x="490" y="630" width="60" height="60" as="geometry" />
        </mxCell>
        <mxCell id="d6C8ocy7qPmGwYubDqnd-49" value="&lt;font style=&quot;font-size: 18px;&quot;&gt;1&lt;/font&gt;" style="whiteSpace=wrap;html=1;aspect=fixed;" vertex="1" parent="1">
          <mxGeometry x="610" y="630" width="60" height="60" as="geometry" />
        </mxCell>
        <mxCell id="d6C8ocy7qPmGwYubDqnd-50" value="" style="endArrow=classic;html=1;rounded=0;entryX=0.5;entryY=0;entryDx=0;entryDy=0;" edge="1" parent="1" target="d6C8ocy7qPmGwYubDqnd-47">
          <mxGeometry width="50" height="50" relative="1" as="geometry">
            <mxPoint x="400" y="590" as="sourcePoint" />
            <mxPoint x="440" y="640" as="targetPoint" />
          </mxGeometry>
        </mxCell>
        <mxCell id="d6C8ocy7qPmGwYubDqnd-51" value="&lt;font style=&quot;font-size: 18px;&quot;&gt;mid&lt;/font&gt;" style="text;html=1;align=center;verticalAlign=middle;resizable=0;points=[];autosize=1;strokeColor=none;fillColor=none;" vertex="1" parent="1">
          <mxGeometry x="375" y="565" width="50" height="40" as="geometry" />
        </mxCell>
        <mxCell id="d6C8ocy7qPmGwYubDqnd-52" value="&lt;font style=&quot;font-size: 18px;&quot;&gt;1&lt;/font&gt;" style="whiteSpace=wrap;html=1;aspect=fixed;" vertex="1" parent="1">
          <mxGeometry x="130" y="740" width="60" height="60" as="geometry" />
        </mxCell>
        <mxCell id="d6C8ocy7qPmGwYubDqnd-54" value="&lt;font style=&quot;font-size: 18px;&quot;&gt;2&lt;/font&gt;" style="whiteSpace=wrap;html=1;aspect=fixed;" vertex="1" parent="1">
          <mxGeometry x="250" y="740" width="60" height="60" as="geometry" />
        </mxCell>
        <mxCell id="d6C8ocy7qPmGwYubDqnd-55" value="&lt;font style=&quot;font-size: 18px;&quot;&gt;3&lt;/font&gt;" style="whiteSpace=wrap;html=1;aspect=fixed;" vertex="1" parent="1">
          <mxGeometry x="610" y="740" width="60" height="60" as="geometry" />
        </mxCell>
        <mxCell id="d6C8ocy7qPmGwYubDqnd-56" value="&lt;font style=&quot;font-size: 18px;&quot;&gt;2&lt;/font&gt;" style="whiteSpace=wrap;html=1;aspect=fixed;" vertex="1" parent="1">
          <mxGeometry x="490" y="740" width="60" height="60" as="geometry" />
        </mxCell>
        <mxCell id="d6C8ocy7qPmGwYubDqnd-57" value="&lt;font style=&quot;font-size: 18px;&quot;&gt;1&lt;/font&gt;" style="whiteSpace=wrap;html=1;aspect=fixed;" vertex="1" parent="1">
          <mxGeometry x="370" y="740" width="60" height="60" as="geometry" />
        </mxCell>
        <mxCell id="d6C8ocy7qPmGwYubDqnd-58" value="" style="edgeStyle=elbowEdgeStyle;elbow=vertical;endArrow=classic;html=1;curved=0;rounded=0;endSize=8;startSize=8;exitX=0.5;exitY=1;exitDx=0;exitDy=0;entryX=0.5;entryY=1;entryDx=0;entryDy=0;" edge="1" parent="1" source="d6C8ocy7qPmGwYubDqnd-54" target="d6C8ocy7qPmGwYubDqnd-55">
          <mxGeometry width="50" height="50" relative="1" as="geometry">
            <mxPoint x="390" y="790" as="sourcePoint" />
            <mxPoint x="480" y="910" as="targetPoint" />
            <Array as="points">
              <mxPoint x="360" y="840" />
            </Array>
          </mxGeometry>
        </mxCell>
        <mxCell id="d6C8ocy7qPmGwYubDqnd-69" value="" style="shape=flexArrow;endArrow=classic;html=1;rounded=0;exitX=1;exitY=0.5;exitDx=0;exitDy=0;entryX=0;entryY=0.5;entryDx=0;entryDy=0;" edge="1" parent="1" source="d6C8ocy7qPmGwYubDqnd-52" target="d6C8ocy7qPmGwYubDqnd-54">
          <mxGeometry width="50" height="50" relative="1" as="geometry">
            <mxPoint x="390" y="790" as="sourcePoint" />
            <mxPoint x="440" y="740" as="targetPoint" />
          </mxGeometry>
        </mxCell>
        <mxCell id="d6C8ocy7qPmGwYubDqnd-73" value="" style="shape=flexArrow;endArrow=classic;html=1;rounded=0;exitX=1;exitY=0.5;exitDx=0;exitDy=0;entryX=0;entryY=0.5;entryDx=0;entryDy=0;" edge="1" parent="1">
          <mxGeometry width="50" height="50" relative="1" as="geometry">
            <mxPoint x="550" y="770" as="sourcePoint" />
            <mxPoint x="610" y="770" as="targetPoint" />
          </mxGeometry>
        </mxCell>
        <mxCell id="d6C8ocy7qPmGwYubDqnd-74" value="" style="shape=flexArrow;endArrow=classic;html=1;rounded=0;exitX=1;exitY=0.5;exitDx=0;exitDy=0;entryX=0;entryY=0.5;entryDx=0;entryDy=0;" edge="1" parent="1">
          <mxGeometry width="50" height="50" relative="1" as="geometry">
            <mxPoint x="430" y="769.5" as="sourcePoint" />
            <mxPoint x="490" y="769.5" as="targetPoint" />
          </mxGeometry>
        </mxCell>
        <mxCell id="d6C8ocy7qPmGwYubDqnd-75" value="" style="shape=flexArrow;endArrow=classic;html=1;rounded=0;exitX=1;exitY=0.5;exitDx=0;exitDy=0;entryX=0;entryY=0.5;entryDx=0;entryDy=0;" edge="1" parent="1">
          <mxGeometry width="50" height="50" relative="1" as="geometry">
            <mxPoint x="190" y="659.5" as="sourcePoint" />
            <mxPoint x="250" y="659.5" as="targetPoint" />
          </mxGeometry>
        </mxCell>
        <mxCell id="d6C8ocy7qPmGwYubDqnd-76" value="" style="shape=flexArrow;endArrow=classic;html=1;rounded=0;exitX=1;exitY=0.5;exitDx=0;exitDy=0;entryX=0;entryY=0.5;entryDx=0;entryDy=0;" edge="1" parent="1">
          <mxGeometry width="50" height="50" relative="1" as="geometry">
            <mxPoint x="310" y="659.5" as="sourcePoint" />
            <mxPoint x="370" y="659.5" as="targetPoint" />
          </mxGeometry>
        </mxCell>
        <mxCell id="d6C8ocy7qPmGwYubDqnd-77" value="" style="shape=flexArrow;endArrow=classic;html=1;rounded=0;exitX=1;exitY=0.5;exitDx=0;exitDy=0;entryX=0;entryY=0.5;entryDx=0;entryDy=0;" edge="1" parent="1">
          <mxGeometry width="50" height="50" relative="1" as="geometry">
            <mxPoint x="430" y="659.5" as="sourcePoint" />
            <mxPoint x="490" y="659.5" as="targetPoint" />
          </mxGeometry>
        </mxCell>
        <mxCell id="d6C8ocy7qPmGwYubDqnd-78" value="" style="shape=flexArrow;endArrow=classic;html=1;rounded=0;exitX=1;exitY=0.5;exitDx=0;exitDy=0;entryX=0;entryY=0.5;entryDx=0;entryDy=0;" edge="1" parent="1">
          <mxGeometry width="50" height="50" relative="1" as="geometry">
            <mxPoint x="550" y="659.5" as="sourcePoint" />
            <mxPoint x="610" y="659.5" as="targetPoint" />
          </mxGeometry>
        </mxCell>
      </root>
    </mxGraphModel>
  </diagram>
</mxfile>
